<?xml version="1.0" standalone="no"?>
<!DOCTYPE svg PUBLIC "-//W3C//DTD SVG 20010904//EN"
 "http://www.w3.org/TR/2001/REC-SVG-20010904/DTD/svg10.dtd">
<svg version="1.0" xmlns="http://www.w3.org/2000/svg"
 width="3001.000000pt" height="3001.000000pt" viewBox="0 0 3001.000000 3001.000000"
 preserveAspectRatio="xMidYMid meet">
<metadata>
Created by potrace 1.14, written by Peter Selinger 2001-2017
</metadata>
<g transform="translate(0.000000,3001.000000) scale(0.100000,-0.100000)"
fill="#000000" stroke="none">
<path d="M14468 30005 c-1 -2 -70 -6 -153 -9 -82 -4 -177 -9 -210 -11 -33 -2
-100 -7 -150 -10 -49 -3 -112 -7 -140 -10 -27 -2 -81 -7 -120 -10 -38 -3 -90
-8 -115 -11 -25 -2 -68 -6 -96 -9 -55 -4 -120 -12 -199 -22 -27 -4 -53 -6 -56
-5 -4 1 -34 -3 -67 -8 -33 -6 -84 -12 -113 -15 -30 -3 -81 -10 -114 -15 -33
-5 -80 -12 -105 -15 -25 -3 -56 -8 -70 -10 -99 -16 -229 -36 -250 -40 -14 -2
-41 -7 -60 -10 -71 -11 -209 -37 -360 -67 -85 -16 -166 -32 -180 -35 -14 -2
-43 -9 -65 -15 -22 -5 -51 -12 -65 -14 -33 -6 -321 -72 -385 -89 -108 -29
-331 -87 -347 -90 -9 -2 -41 -11 -70 -19 -29 -9 -136 -41 -238 -70 -102 -30
-204 -62 -228 -70 -23 -8 -46 -16 -50 -16 -23 -2 -492 -163 -697 -238 -247
-91 -737 -294 -960 -397 -44 -20 -96 -44 -115 -52 -19 -9 -165 -80 -325 -159
-285 -141 -403 -202 -587 -305 -51 -28 -113 -62 -137 -75 -89 -48 -191 -109
-191 -114 0 -3 3398 -5 7550 -5 4153 0 7550 2 7550 5 0 5 -23 19 -120 72 -30
17 -59 34 -65 38 -26 20 -375 206 -590 315 -831 422 -1681 758 -2590 1024
-142 41 -276 78 -345 95 -8 2 -53 14 -100 26 -47 12 -92 24 -100 25 -8 2 -53
14 -100 25 -47 12 -95 24 -108 26 -13 3 -80 18 -150 34 -203 46 -604 125 -787
154 -16 3 -70 12 -120 20 -49 9 -106 18 -125 20 -67 9 -135 18 -151 21 -9 2
-40 6 -70 10 -30 3 -67 9 -84 11 -16 3 -48 7 -70 9 -22 2 -80 8 -130 14 -49 6
-112 14 -140 17 -27 2 -66 7 -85 9 -33 4 -100 10 -220 20 -30 3 -82 7 -115 10
-33 3 -91 7 -130 10 -185 11 -275 17 -330 22 -71 5 -1252 13 -1257 8z"/>
<path d="M3736 24915 c-25 -25 -219 -252 -286 -335 -25 -30 -47 -57 -50 -60
-13 -11 -281 -352 -366 -465 -270 -358 -539 -749 -752 -1092 l-51 -82 4677 3
c2572 2 4693 5 4712 8 19 3 69 9 110 12 185 17 337 40 535 82 125 27 356 87
403 105 15 6 34 12 42 14 126 29 507 197 725 320 223 126 481 318 684 511 128
123 239 203 356 259 84 41 225 88 299 101 17 2 45 7 61 11 49 9 229 10 297 2
93 -11 116 -16 214 -45 182 -52 361 -159 512 -305 42 -41 111 -104 152 -139
41 -36 77 -67 80 -70 3 -3 48 -38 100 -77 280 -208 545 -355 879 -488 119 -47
280 -102 351 -120 8 -2 40 -11 70 -20 30 -9 73 -21 95 -25 22 -5 49 -11 60
-14 106 -25 314 -65 370 -72 63 -7 121 -14 150 -19 17 -2 66 -7 110 -11 44 -3
91 -8 105 -12 14 -3 2132 -7 4708 -8 3598 -2 4681 0 4675 9 -19 32 -180 283
-202 316 -9 13 -20 31 -26 39 -342 527 -815 1149 -1246 1639 l-33 38 -11254 1
c-8684 0 -11257 -2 -11266 -11z"/>
<path d="M14758 22375 c-2 -2 -37 -7 -78 -10 -41 -3 -102 -10 -135 -15 -33 -5
-78 -12 -100 -16 -83 -12 -306 -74 -430 -119 -124 -45 -347 -148 -465 -215
-197 -113 -431 -293 -615 -474 -247 -243 -408 -460 -603 -816 -263 -480 -737
-795 -1292 -859 -41 -4 -2362 -8 -5158 -8 -2795 0 -5084 -2 -5086 -4 -6 -6
-121 -363 -162 -500 -91 -311 -146 -516 -254 -964 -22 -91 -60 -264 -66 -301
-3 -21 -8 -42 -9 -45 -2 -3 -9 -32 -14 -65 -14 -80 -20 -115 -26 -141 -5 -22
-2 -23 52 -24 283 -2 8901 2 8943 5 53 4 149 14 200 21 14 2 43 6 65 10 42 6
73 11 115 20 14 3 34 7 45 9 59 11 230 58 248 68 12 6 24 11 27 10 36 -10 406
151 580 252 489 284 877 689 1149 1200 74 138 105 188 182 291 72 97 217 243
314 315 194 147 445 260 672 304 43 9 92 19 108 23 17 4 919 8 2005 9 1633 2
1991 0 2065 -12 315 -48 588 -168 831 -365 75 -61 232 -222 268 -275 85 -126
119 -181 163 -264 311 -589 746 -1021 1313 -1306 291 -146 628 -251 928 -289
23 -3 59 -7 80 -10 20 -2 69 -7 107 -11 78 -7 9003 -9 9011 -2 4 4 0 27 -22
136 -3 13 -21 99 -40 190 -20 92 -40 187 -45 212 -10 50 -55 236 -69 290 -34
126 -92 349 -96 366 -2 12 -13 53 -24 90 -11 38 -29 98 -39 134 -51 177 -189
610 -196 618 -2 2 -2291 4 -5087 4 -2795 0 -5114 4 -5153 9 -281 35 -518 117
-735 256 -83 53 -85 55 -179 134 -165 140 -309 320 -412 519 -280 538 -776
1031 -1318 1309 -239 123 -584 241 -781 267 -25 3 -47 8 -50 9 -3 2 -37 6 -75
10 -39 4 -81 9 -95 12 -32 6 -556 13 -562 8z"/>
<path d="M12357 17304 c-1 -1 -69 -4 -152 -8 -166 -7 -184 -8 -335 -31 -141
-22 -327 -67 -452 -109 -147 -50 -190 -65 -213 -76 -442 -204 -685 -367 -965
-649 -209 -211 -382 -446 -520 -706 -80 -152 -82 -155 -129 -225 -200 -294
-475 -511 -801 -633 -147 -55 -273 -84 -430 -101 -25 -3 -1916 -5 -4203 -5
l-4158 -1 6 -217 c4 -120 8 -243 10 -273 2 -30 6 -104 9 -165 4 -60 9 -135 11
-165 2 -30 7 -86 10 -125 6 -79 12 -144 21 -225 3 -30 8 -75 10 -100 5 -60 11
-115 18 -175 3 -27 8 -72 11 -100 3 -27 8 -61 10 -75 2 -14 7 -49 10 -79 4
-30 8 -63 10 -73 2 -11 7 -47 10 -81 4 -34 8 -64 10 -67 2 -3 6 -30 10 -60 4
-30 11 -57 15 -60 12 -7 6412 -3 6485 4 65 6 108 12 200 27 303 47 587 139
869 281 54 27 116 60 137 74 21 13 41 24 44 24 2 0 62 38 131 85 333 225 619
514 830 841 52 80 204 349 204 361 0 9 104 159 153 221 166 210 414 393 671
496 86 35 245 82 303 91 15 2 37 6 48 8 11 3 49 8 85 13 74 9 9189 11 9295 2
432 -36 877 -281 1149 -631 79 -102 110 -152 206 -332 198 -371 457 -682 780
-936 281 -221 581 -381 915 -490 95 -31 256 -74 315 -84 19 -3 42 -8 50 -10 8
-2 33 -6 55 -9 22 -4 51 -8 65 -11 34 -6 114 -16 180 -22 74 -7 6471 -10 6475
-3 2 3 6 24 9 45 2 22 14 103 25 180 10 77 22 165 26 195 3 30 8 66 10 80 4
33 17 139 20 170 9 98 17 171 21 204 2 21 6 66 9 100 3 33 8 93 11 131 9 110
12 151 19 290 4 72 9 146 10 165 2 19 7 135 10 258 l7 222 -4164 1 c-2290 0
-4170 2 -4178 3 -8 2 -44 6 -79 10 -156 17 -343 72 -506 151 -343 165 -588
408 -779 770 -217 410 -492 739 -838 1002 -208 159 -489 316 -722 405 -279
107 -584 174 -883 194 -72 5 -5490 13 -5496 8z"/>
<path d="M9508 12215 c-2 -2 -44 -6 -95 -9 -50 -4 -100 -8 -110 -10 -10 -2
-38 -7 -63 -10 -25 -3 -54 -8 -65 -10 -11 -2 -36 -6 -55 -10 -450 -81 -896
-284 -1270 -575 -111 -86 -152 -123 -275 -246 -226 -227 -382 -440 -539 -740
-177 -338 -406 -571 -721 -736 -207 -109 -416 -170 -635 -187 -47 -3 -1123 -6
-2392 -6 -1270 -1 -2308 -4 -2308 -8 0 -10 146 -379 176 -445 13 -28 24 -55
24 -58 0 -3 12 -32 26 -63 14 -31 62 -138 106 -237 92 -209 375 -781 479 -970
39 -71 81 -148 92 -170 11 -22 29 -53 40 -68 l19 -28 1032 4 c567 2 1047 6
1066 10 19 4 67 11 105 16 39 6 88 13 110 16 90 14 358 86 480 130 162 58 436
191 575 280 108 69 296 208 365 270 154 139 262 254 412 439 66 82 205 305
293 471 203 384 494 642 905 803 46 18 184 59 223 67 91 16 134 22 227 31 91
9 14413 9 14525 0 72 -5 186 -22 265 -40 100 -21 249 -77 368 -137 70 -35 205
-115 217 -129 3 -3 37 -30 75 -61 85 -69 148 -130 225 -219 78 -91 124 -161
213 -321 41 -74 87 -156 102 -184 15 -27 53 -86 83 -130 31 -44 65 -94 76
-110 28 -40 79 -109 87 -115 3 -3 39 -43 80 -90 100 -114 251 -261 341 -330
10 -8 31 -25 46 -38 15 -12 45 -35 67 -50 22 -15 42 -30 45 -33 4 -5 85 -59
139 -94 233 -149 579 -298 836 -361 124 -30 200 -46 290 -59 61 -9 126 -19
145 -22 19 -3 501 -7 1070 -10 l1035 -4 45 83 c148 272 207 385 350 674 88
177 160 324 160 327 0 3 22 52 48 109 27 57 86 191 131 298 105 246 103 241
136 325 15 39 31 79 36 90 30 69 49 128 44 134 -4 3 -1065 7 -2358 7 -1294 1
-2361 4 -2373 7 -12 3 -45 8 -75 12 -182 22 -423 109 -614 223 -159 95 -372
288 -470 427 -27 39 -53 72 -57 73 -5 2 -8 8 -8 14 0 5 -8 22 -19 36 -16 23
-36 60 -119 217 -34 63 -129 213 -186 295 -163 231 -344 416 -630 647 -35 28
-254 173 -262 173 -4 0 -15 7 -24 15 -31 28 -317 164 -450 213 -121 46 -305
101 -385 117 -138 27 -250 46 -300 51 -33 3 -71 8 -85 11 -23 6 -11086 14
-11092 8z"/>
<path d="M7167 7133 c-1 0 -90 -4 -197 -7 -107 -4 -209 -8 -226 -11 -17 -2
-64 -6 -105 -10 -90 -7 -263 -30 -299 -40 -8 -2 -33 -6 -54 -10 -89 -13 -380
-98 -401 -116 -5 -5 -16 -9 -24 -9 -34 0 -305 -144 -431 -228 -326 -220 -605
-501 -940 -947 -161 -214 -435 -621 -443 -657 -1 -7 3246 -10 10948 -10 6023
0 10954 1 10958 1 28 3 -496 760 -620 896 -10 12 -43 50 -73 85 -336 398 -706
687 -1080 844 -183 77 -445 147 -639 171 -30 4 -61 8 -71 10 -9 2 -54 6 -101
10 -46 4 -100 8 -119 10 -147 15 -1320 18 -8248 19 -4309 0 -7834 0 -7835 -1z"/>
<path d="M7550 1984 c753 -430 1526 -790 2300 -1070 69 -25 154 -56 190 -69
36 -13 151 -52 255 -86 105 -34 199 -65 210 -69 40 -17 534 -159 675 -195 120
-30 553 -135 575 -139 17 -3 104 -21 195 -40 91 -19 179 -37 195 -39 17 -3 55
-10 85 -17 30 -6 66 -12 80 -15 14 -2 66 -11 115 -20 50 -9 106 -18 125 -21
19 -3 78 -12 130 -20 52 -8 106 -17 120 -19 14 -2 43 -6 65 -9 22 -4 58 -9 80
-11 22 -3 51 -7 65 -10 14 -2 50 -7 80 -10 30 -3 66 -8 80 -10 35 -6 128 -17
170 -20 19 -1 55 -5 80 -8 25 -4 74 -9 110 -12 36 -3 85 -7 110 -9 25 -3 81
-7 125 -11 44 -3 96 -8 115 -10 19 -2 91 -6 160 -10 69 -4 141 -8 161 -10 232
-23 1228 -23 1594 0 28 1 104 6 170 10 66 4 136 8 155 10 37 4 151 13 235 20
28 2 75 6 105 9 30 4 80 8 110 11 30 3 72 8 93 10 74 10 113 14 167 20 30 4
66 8 80 10 14 2 49 7 79 10 30 4 62 8 71 10 9 2 41 6 70 10 29 4 61 8 71 10 9
2 39 6 66 10 26 3 71 10 98 15 28 5 70 12 95 15 25 4 63 10 85 15 22 5 60 11
85 15 25 3 77 12 115 20 39 8 120 23 180 35 146 29 144 28 163 34 9 3 31 8 47
10 29 5 171 37 320 71 375 86 874 228 1300 370 948 316 1875 735 2765 1249
l45 26 -7565 0 -7565 0 115 -66z"/>
</g>
</svg>
