<svg xmlns="http://www.w3.org/2000/svg" viewBox="0 0 184.96 184.98"><defs><style>.cls-1{fill:#b8dcd2;}</style></defs><g id="Layer_2" data-name="Layer 2"><g id="Layer_1-2" data-name="Layer 1"><path class="cls-1" d="M72,65.52l.22-.41a10.29,10.29,0,0,1,9.1-5.5h22.29a10.3,10.3,0,0,1,9.11,5.5l.21.41a18.27,18.27,0,0,0,16.16,9.76h54.25A93.22,93.22,0,0,0,180,62.69H117.93a10.29,10.29,0,0,1-9.1-5.5A18.81,18.81,0,0,0,96,47.36a20.25,20.25,0,0,0-7.06,0,18.79,18.79,0,0,0-12.82,9.83,10.29,10.29,0,0,1-9.1,5.5H4.91a91.73,91.73,0,0,0-3.3,12.59H55.86A18.24,18.24,0,0,0,72,65.52Z"/><path class="cls-1" d="M87.24,37.24a7.46,7.46,0,0,1,10.48,0c4.36,4.32,10.69,6.7,17.83,6.7h55.64a93.93,93.93,0,0,0-9.33-12.6H23.1a93.93,93.93,0,0,0-9.33,12.6H69.41C76.55,43.94,82.88,41.56,87.24,37.24Z"/><path class="cls-1" d="M92.48,185a92.13,92.13,0,0,0,46.6-12.59H45.88A92.13,92.13,0,0,0,92.48,185Z"/><path class="cls-1" d="M92.48,0a92.13,92.13,0,0,0-46.6,12.59h93.2A92.13,92.13,0,0,0,92.48,0Z"/><path class="cls-1" d="M134.36,94a10.28,10.28,0,0,1-9.11-5.52l-.21-.39a18.17,18.17,0,0,0-16.11-9.76H76a18.18,18.18,0,0,0-16.11,9.76l-.21.39A10.27,10.27,0,0,1,50.6,94H0a94.68,94.68,0,0,0,1.08,12.6H39.47a18.17,18.17,0,0,0,16.11-9.76l.22-.41A10.24,10.24,0,0,1,64.88,91h55.19a10.26,10.26,0,0,1,9.09,5.5l.21.41a18.19,18.19,0,0,0,16.11,9.76h38.39A93.07,93.07,0,0,0,185,94Z"/><path class="cls-1" d="M141.69,119.87l-.21-.41a18.22,18.22,0,0,0-16.13-9.76H59.61a18.21,18.21,0,0,0-16.13,9.76l-.21.41a10.28,10.28,0,0,1-9.1,5.51H6A93,93,0,0,0,12,138H23a18.21,18.21,0,0,0,16.13-9.76l.22-.41a10.27,10.27,0,0,1,9.1-5.5h88a10.27,10.27,0,0,1,9.1,5.5l.21.41A18.24,18.24,0,0,0,161.94,138H173a93,93,0,0,0,5.92-12.59H150.79A10.28,10.28,0,0,1,141.69,119.87Z"/><path class="cls-1" d="M138,141.05H46.93c-9.27,0-14.18,0-22,12.59H160.05C152.2,141.05,147.3,141.05,138,141.05Z"/></g></g></svg>