<?xml version="1.0" encoding="UTF-8"?>
<svg width="186px" height="40px" viewBox="0 0 186 40" version="1.1" xmlns="http://www.w3.org/2000/svg" xmlns:xlink="http://www.w3.org/1999/xlink">
    <title>Group 2</title>
    <g id="Creditario" stroke="none" stroke-width="1" fill="none" fill-rule="evenodd">
        <g id="Group-2">
            <path d="M53.025,30.9375 L53.025,9.9375 L50.025,9.9375 L50.025,30.9375 L53.025,30.9375 Z M64.5374994,31.1175 C65.7174994,31.1175 66.7974994,30.8875 67.7774994,30.4275 C68.7574994,29.9675 69.5674994,29.2975 70.2074994,28.4175 L70.2074994,28.4175 L70.2074994,30.9375 L72.9674994,30.9375 L72.9674994,8.6775 L70.0874994,8.6775 L70.0874994,17.4375 C69.4474994,16.5975 68.6474994,15.9625 67.6874994,15.5325 C66.7274994,15.1025 65.6774994,14.8875 64.5374994,14.8875 C62.9974994,14.8875 61.6174994,15.2275 60.3974994,15.9075 C59.1774994,16.5875 58.2224994,17.5375 57.5324994,18.7575 C56.8424994,19.9775 56.4974994,21.3875 56.4974994,22.9875 C56.4974994,24.5875 56.8424994,26.0025 57.5324994,27.2325 C58.2224994,28.4625 59.1774994,29.4175 60.3974994,30.0975 C61.6174994,30.7775 62.9974994,31.1175 64.5374994,31.1175 Z M64.7774994,28.5975 C63.7574994,28.5975 62.8424994,28.3625 62.0324994,27.8925 C61.2224994,27.4225 60.5824994,26.7625 60.1124994,25.9125 C59.6424994,25.0625 59.4074994,24.0875 59.4074994,22.9875 C59.4074994,21.8875 59.6424994,20.9125 60.1124994,20.0625 C60.5824994,19.2125 61.2224994,18.5575 62.0324994,18.0975 C62.8424994,17.6375 63.7574994,17.4075 64.7774994,17.4075 C65.7774994,17.4075 66.6874994,17.6375 67.5074994,18.0975 C68.3274994,18.5575 68.9674994,19.2125 69.4274994,20.0625 C69.8874994,20.9125 70.1174994,21.8875 70.1174994,22.9875 C70.1174994,24.0875 69.8874994,25.0625 69.4274994,25.9125 C68.9674994,26.7625 68.3274994,27.4225 67.5074994,27.8925 C66.6874994,28.3625 65.7774994,28.5975 64.7774994,28.5975 Z M84.5699988,31.1175 C85.8899988,31.1175 87.0849988,30.8975 88.1549988,30.4575 C89.2249987,30.0175 90.1199988,29.3775 90.8399988,28.5375 L90.8399988,28.5375 L89.2499988,26.6775 C88.0899988,27.9575 86.5599988,28.5975 84.6599988,28.5975 C83.0999987,28.5975 81.7949988,28.1725 80.7449988,27.3225 C79.6949988,26.4725 79.0799988,25.3475 78.8999988,23.9475 L78.8999988,23.9475 L91.7999988,23.9475 C91.8399988,23.5875 91.8599988,23.2975 91.8599988,23.0775 C91.8599988,21.4775 91.5249988,20.0575 90.8549987,18.8175 C90.1849988,17.5775 89.2549987,16.6125 88.0649988,15.9225 C86.8749988,15.2325 85.5199988,14.8875 83.9999988,14.8875 C82.4799988,14.8875 81.1149988,15.2325 79.9049988,15.9225 C78.6949988,16.6125 77.7449988,17.5775 77.0549988,18.8175 C76.3649988,20.0575 76.0199988,21.4475 76.0199988,22.9875 C76.0199988,24.5475 76.3749988,25.9475 77.0849988,27.1875 C77.7949988,28.4275 78.7999988,29.3925 80.0999987,30.0825 C81.3999988,30.7725 82.8899988,31.1175 84.5699988,31.1175 Z M89.0999988,21.8775 L78.8999988,21.8775 C79.0599988,20.5175 79.6049987,19.4175 80.5349987,18.5775 C81.4649988,17.7375 82.6199988,17.3175 83.9999988,17.3175 C85.3799987,17.3175 86.5349987,17.7425 87.4649988,18.5925 C88.3949988,19.4425 88.9399988,20.5375 89.0999988,21.8775 L89.0999988,21.8775 Z M97.7924981,30.9375 L97.7924981,22.7475 C97.7924981,21.0475 98.2424981,19.7425 99.1424981,18.8325 C100.042498,17.9225 101.272498,17.4675 102.832498,17.4675 C104.212498,17.4675 105.272498,17.8575 106.012498,18.6375 C106.752498,19.4175 107.122498,20.5775 107.122498,22.1175 L107.122498,22.1175 L107.122498,30.9375 L110.002498,30.9375 L110.002498,21.7875 C110.002498,19.5275 109.407498,17.8125 108.217498,16.6425 C107.027498,15.4725 105.422498,14.8875 103.402498,14.8875 C102.142498,14.8875 101.017498,15.1075 100.027498,15.5475 C99.0374981,15.9875 98.2524981,16.6175 97.6724981,17.4375 L97.6724981,17.4375 L97.6724981,15.0375 L94.9124981,15.0375 L94.9124981,30.9375 L97.7924981,30.9375 Z M119.864998,31.1175 C120.524998,31.1175 121.164998,31.0225 121.784998,30.8325 C122.404998,30.6425 122.924998,30.3675 123.344998,30.0075 L123.344998,30.0075 L122.444997,27.9375 C121.824997,28.4375 121.074998,28.6875 120.194998,28.6875 C119.394998,28.6875 118.779998,28.4575 118.349998,27.9975 C117.919998,27.5375 117.704998,26.8775 117.704998,26.0175 L117.704998,26.0175 L117.704998,17.4075 L122.264998,17.4075 L122.264998,15.0375 L117.704998,15.0375 L117.704998,11.5575 L114.824998,11.5575 L114.824998,15.0375 L112.124998,15.0375 L112.124998,17.4075 L114.824998,17.4075 L114.824998,26.1375 C114.824998,27.7375 115.264998,28.9675 116.144998,29.8275 C117.024998,30.6875 118.264998,31.1175 119.864998,31.1175 Z M127.327497,11.9775 C127.887497,11.9775 128.352497,11.7925 128.722497,11.4225 C129.092497,11.0525 129.277497,10.5975 129.277497,10.0575 C129.277497,9.5375 129.092497,9.1025 128.722497,8.7525 C128.352497,8.4025 127.887497,8.2275 127.327497,8.2275 C126.767497,8.2275 126.302497,8.4125 125.932497,8.7825 C125.562497,9.1525 125.377497,9.5975 125.377497,10.1175 C125.377497,10.6375 125.562497,11.0775 125.932497,11.4375 C126.302497,11.7975 126.767497,11.9775 127.327497,11.9775 Z M128.767497,30.9375 L128.767497,15.0375 L125.887497,15.0375 L125.887497,30.9375 L128.767497,30.9375 Z M139.889996,31.1175 C141.069996,31.1175 142.149996,30.8875 143.129996,30.4275 C144.109996,29.9675 144.919996,29.2975 145.559996,28.4175 L145.559996,28.4175 L145.559996,30.9375 L148.319996,30.9375 L148.319996,8.6775 L145.439996,8.6775 L145.439996,17.4375 C144.799996,16.5975 143.999996,15.9625 143.039996,15.5325 C142.079996,15.1025 141.029996,14.8875 139.889996,14.8875 C138.349996,14.8875 136.969996,15.2275 135.749996,15.9075 C134.529996,16.5875 133.574996,17.5375 132.884996,18.7575 C132.194996,19.9775 131.849996,21.3875 131.849996,22.9875 C131.849996,24.5875 132.194996,26.0025 132.884996,27.2325 C133.574996,28.4625 134.529996,29.4175 135.749996,30.0975 C136.969996,30.7775 138.349996,31.1175 139.889996,31.1175 Z M140.129996,28.5975 C139.109996,28.5975 138.194996,28.3625 137.384996,27.8925 C136.574996,27.4225 135.934996,26.7625 135.464996,25.9125 C134.994996,25.0625 134.759996,24.0875 134.759996,22.9875 C134.759996,21.8875 134.994996,20.9125 135.464996,20.0625 C135.934996,19.2125 136.574996,18.5575 137.384996,18.0975 C138.194996,17.6375 139.109996,17.4075 140.129996,17.4075 C141.129996,17.4075 142.039996,17.6375 142.859996,18.0975 C143.679996,18.5575 144.319996,19.2125 144.779996,20.0625 C145.239996,20.9125 145.469996,21.8875 145.469996,22.9875 C145.469996,24.0875 145.239996,25.0625 144.779996,25.9125 C144.319996,26.7625 143.679996,27.4225 142.859996,27.8925 C142.039996,28.3625 141.129996,28.5975 140.129996,28.5975 Z M157.492496,31.1175 C158.712496,31.1175 159.767496,30.9225 160.657496,30.5325 C161.547496,30.1425 162.232496,29.5775 162.712496,28.8375 L162.712496,28.8375 L162.712496,30.9375 L165.442496,30.9375 L165.442496,21.3375 C165.442496,19.1975 164.857496,17.5875 163.687496,16.5075 C162.517496,15.4275 160.832496,14.8875 158.632496,14.8875 C157.352496,14.8875 156.142496,15.0625 155.002496,15.4125 C153.862496,15.7625 152.882496,16.2675 152.062496,16.9275 L152.062496,16.9275 L153.262496,19.0875 C153.882496,18.5675 154.642496,18.1525 155.542496,17.8425 C156.442496,17.5325 157.362496,17.3775 158.302496,17.3775 C159.702496,17.3775 160.762496,17.7075 161.482496,18.3675 C162.202496,19.0275 162.562496,19.9775 162.562496,21.2175 L162.562496,21.2175 L162.562496,21.7875 L158.002496,21.7875 C155.782496,21.7875 154.162496,22.2125 153.142496,23.0625 C152.122496,23.9125 151.612496,25.0375 151.612496,26.4375 C151.612496,27.8375 152.147496,28.9675 153.217496,29.8275 C154.287496,30.6875 155.712496,31.1175 157.492496,31.1175 Z M157.972496,28.8975 C156.872496,28.8975 156.012496,28.6675 155.392496,28.2075 C154.772496,27.7475 154.462496,27.1175 154.462496,26.3175 C154.462496,24.6775 155.682496,23.8575 158.122496,23.8575 L158.122496,23.8575 L162.562496,23.8575 L162.562496,26.0775 C162.202496,26.9775 161.622496,27.6725 160.822496,28.1625 C160.022496,28.6525 159.072496,28.8975 157.972496,28.8975 Z M176.504995,31.1175 C177.684995,31.1175 178.764995,30.8875 179.744995,30.4275 C180.724995,29.9675 181.534995,29.2975 182.174995,28.4175 L182.174995,28.4175 L182.174995,30.9375 L184.934995,30.9375 L184.934995,8.6775 L182.054995,8.6775 L182.054995,17.4375 C181.414995,16.5975 180.614995,15.9625 179.654995,15.5325 C178.694995,15.1025 177.644995,14.8875 176.504995,14.8875 C174.964995,14.8875 173.584995,15.2275 172.364995,15.9075 C171.144995,16.5875 170.189995,17.5375 169.499995,18.7575 C168.809995,19.9775 168.464995,21.3875 168.464995,22.9875 C168.464995,24.5875 168.809995,26.0025 169.499995,27.2325 C170.189995,28.4625 171.144995,29.4175 172.364995,30.0975 C173.584995,30.7775 174.964995,31.1175 176.504995,31.1175 Z M176.744995,28.5975 C175.724995,28.5975 174.809995,28.3625 173.999995,27.8925 C173.189995,27.4225 172.549995,26.7625 172.079995,25.9125 C171.609995,25.0625 171.374995,24.0875 171.374995,22.9875 C171.374995,21.8875 171.609995,20.9125 172.079995,20.0625 C172.549995,19.2125 173.189995,18.5575 173.999995,18.0975 C174.809995,17.6375 175.724995,17.4075 176.744995,17.4075 C177.744995,17.4075 178.654995,17.6375 179.474995,18.0975 C180.294995,18.5575 180.934995,19.2125 181.394995,20.0625 C181.854995,20.9125 182.084995,21.8875 182.084995,22.9875 C182.084995,24.0875 181.854995,25.0625 181.394995,25.9125 C180.934995,26.7625 180.294995,27.4225 179.474995,27.8925 C178.654995,28.3625 177.744995,28.5975 176.744995,28.5975 Z" id="Identidad" stroke="#002740" fill="#002740" fill-rule="nonzero"></path>
            <g id="KYC-Logo-Copy">
                <rect id="Rectangle" fill="#076473" x="7.8125" y="3.75" width="3.75" height="3.75" rx="1.875"></rect>
                <rect id="Rectangle" fill="#076473" x="32.5" y="28.4375" width="3.75" height="3.75" rx="1.875"></rect>
                <rect id="Rectangle" fill="#54B087" x="11.875" y="4.0625" width="3.75" height="7.5" rx="1.875"></rect>
                <rect id="Rectangle" fill="#BED84E" x="3.4375" y="8.125" width="3.75" height="7.5" rx="1.875"></rect>
                <g id="Group" transform="translate(7.812500, 8.125000)" fill="#BED84E">
                    <rect id="Rectangle" x="-1.11022302e-15" y="0" width="3.45323741" height="7.44604317" rx="1.72661871"></rect>
                    <path d="M3.77697842,2.05035971 C4.7305636,2.05035971 5.50359712,2.82339324 5.50359712,3.77697842 L5.50359712,7.76978417 C5.50359712,8.72336935 4.7305636,9.49640288 3.77697842,9.49640288 C2.82339324,9.49640288 2.05035971,8.72336935 2.05035971,7.76978417 L2.05035971,3.77697842 C2.05035971,2.82339324 2.82339324,2.05035971 3.77697842,2.05035971 Z" id="Rectangle" transform="translate(3.776978, 5.773381) rotate(90.000000) translate(-3.776978, -5.773381) "></path>
                </g>
                <g id="Group-Copy" transform="translate(15.625000, 0.000000)" fill="#BED84E">
                    <rect id="Rectangle" x="0" y="0" width="3.45323741" height="7.44604317" rx="1.72661871"></rect>
                    <path d="M3.77697842,2.05035971 C4.7305636,2.05035971 5.50359712,2.82339324 5.50359712,3.77697842 L5.50359712,7.76978417 C5.50359712,8.72336935 4.7305636,9.49640288 3.77697842,9.49640288 C2.82339324,9.49640288 2.05035971,8.72336935 2.05035971,7.76978417 L2.05035971,3.77697842 C2.05035971,2.82339324 2.82339324,2.05035971 3.77697842,2.05035971 Z" id="Rectangle" transform="translate(3.776978, 5.773381) rotate(90.000000) translate(-3.776978, -5.773381) "></path>
                </g>
                <g id="Group-Copy-4" transform="translate(28.125000, 7.812500) scale(1, -1) translate(-28.125000, -7.812500) translate(24.375000, 4.062500)" fill="#54B087">
                    <rect id="Rectangle" x="0" y="0" width="3.45323741" height="7.44604317" rx="1.72661871"></rect>
                    <path d="M3.77697842,2.05035971 C4.7305636,2.05035971 5.50359712,2.82339324 5.50359712,3.77697842 L5.50359712,7.76978417 C5.50359712,8.72336935 4.7305636,9.49640288 3.77697842,9.49640288 C2.82339324,9.49640288 2.05035971,8.72336935 2.05035971,7.76978417 L2.05035971,3.77697842 C2.05035971,2.82339324 2.82339324,2.05035971 3.77697842,2.05035971 Z" id="Rectangle" transform="translate(3.776978, 5.773381) rotate(90.000000) translate(-3.776978, -5.773381) "></path>
                </g>
                <g id="Group-Copy-5" transform="translate(31.875000, 11.875000) scale(-1, 1) translate(-31.875000, -11.875000) translate(28.125000, 8.125000)" fill="#BED84E">
                    <rect id="Rectangle" x="0" y="0" width="3.45323741" height="7.44604317" rx="1.72661871"></rect>
                    <path d="M3.77697842,2.05035971 C4.7305636,2.05035971 5.50359712,2.82339324 5.50359712,3.77697842 L5.50359712,7.76978417 C5.50359712,8.72336935 4.7305636,9.49640288 3.77697842,9.49640288 C2.82339324,9.49640288 2.05035971,8.72336935 2.05035971,7.76978417 L2.05035971,3.77697842 C2.05035971,2.82339324 2.82339324,2.05035971 3.77697842,2.05035971 Z" id="Rectangle" transform="translate(3.776978, 5.773381) rotate(90.000000) translate(-3.776978, -5.773381) "></path>
                </g>
                <g id="Group-Copy-3" transform="translate(20.000000, 24.375000)" fill="#076473">
                    <rect id="Rectangle" x="-4.4408921e-15" y="0" width="3.45323741" height="7.44604317" rx="1.72661871"></rect>
                    <path d="M3.77697842,2.05035971 C4.7305636,2.05035971 5.50359712,2.82339324 5.50359712,3.77697842 L5.50359712,7.76978417 C5.50359712,8.72336935 4.7305636,9.49640288 3.77697842,9.49640288 C2.82339324,9.49640288 2.05035971,8.72336935 2.05035971,7.76978417 L2.05035971,3.77697842 C2.05035971,2.82339324 2.82339324,2.05035971 3.77697842,2.05035971 Z" id="Rectangle" transform="translate(3.776978, 5.773381) rotate(90.000000) translate(-3.776978, -5.773381) "></path>
                </g>
                <g id="Group-Copy-6" transform="translate(28.125000, 32.187500) scale(-1, 1) translate(-28.125000, -32.187500) translate(24.375000, 28.437500)" fill="#BED84E">
                    <rect id="Rectangle" x="0" y="0" width="3.45323741" height="7.44604317" rx="1.72661871"></rect>
                    <path d="M3.77697842,2.05035971 C4.7305636,2.05035971 5.50359712,2.82339324 5.50359712,3.77697842 L5.50359712,7.76978417 C5.50359712,8.72336935 4.7305636,9.49640288 3.77697842,9.49640288 C2.82339324,9.49640288 2.05035971,8.72336935 2.05035971,7.76978417 L2.05035971,3.77697842 C2.05035971,2.82339324 2.82339324,2.05035971 3.77697842,2.05035971 Z" id="Rectangle" transform="translate(3.776978, 5.773381) rotate(90.000000) translate(-3.776978, -5.773381) "></path>
                </g>
                <g id="Group-Copy-2" transform="translate(15.937500, 32.187500) scale(1, -1) translate(-15.937500, -32.187500) translate(12.187500, 28.437500)" fill="#54B087">
                    <rect id="Rectangle" x="0" y="0" width="3.45323741" height="7.44604317" rx="1.72661871"></rect>
                    <path d="M3.77697842,2.05035971 C4.7305636,2.05035971 5.50359712,2.82339324 5.50359712,3.77697842 L5.50359712,7.76978417 C5.50359712,8.72336935 4.7305636,9.49640288 3.77697842,9.49640288 C2.82339324,9.49640288 2.05035971,8.72336935 2.05035971,7.76978417 L2.05035971,3.77697842 C2.05035971,2.82339324 2.82339324,2.05035971 3.77697842,2.05035971 Z" id="Rectangle" transform="translate(3.776978, 5.773381) rotate(90.000000) translate(-3.776978, -5.773381) "></path>
                </g>
                <rect id="Rectangle" fill="#54B087" x="3.4375" y="20" width="3.75" height="7.5" rx="1.875"></rect>
                <rect id="Rectangle" fill="#54B087" x="27.8125" y="16.5625" width="3.75" height="7.5" rx="1.875"></rect>
                <rect id="Rectangle" fill="#BED84E" x="32.5" y="20" width="3.75" height="7.5" rx="1.875"></rect>
                <rect id="Rectangle" fill="#54B087" x="15.9375" y="32.1875" width="3.75" height="7.5" rx="1.875"></rect>
                <path d="M11.5625,18.125 C12.5980339,18.125 13.4375,18.9644661 13.4375,20 L13.4375,23.75 C13.4375,24.7855339 12.5980339,25.625 11.5625,25.625 C10.5269661,25.625 9.6875,24.7855339 9.6875,23.75 L9.6875,20 C9.6875,18.9644661 10.5269661,18.125 11.5625,18.125 Z" id="Rectangle" fill="#BED84E" transform="translate(11.562500, 21.875000) rotate(90.000000) translate(-11.562500, -21.875000) "></path>
                <path d="M7.5,26.25 C8.53553391,26.25 9.375,27.0894661 9.375,28.125 L9.375,31.875 C9.375,32.9105339 8.53553391,33.75 7.5,33.75 C6.46446609,33.75 5.625,32.9105339 5.625,31.875 L5.625,28.125 C5.625,27.0894661 6.46446609,26.25 7.5,26.25 Z" id="Rectangle" fill="#BED84E" transform="translate(7.500000, 30.000000) rotate(90.000000) translate(-7.500000, -30.000000) "></path>
                <path d="M3.75,14.375 C4.78553391,14.375 5.625,15.2144661 5.625,16.25 L5.625,20 C5.625,21.0355339 4.78553391,21.875 3.75,21.875 C2.71446609,21.875 1.875,21.0355339 1.875,20 L1.875,16.25 C1.875,15.2144661 2.71446609,14.375 3.75,14.375 Z" id="Rectangle" fill="#54B087" transform="translate(3.750000, 18.125000) rotate(90.000000) translate(-3.750000, -18.125000) "></path>
                <path d="M15.625,22.5 C16.6605339,22.5 17.5,23.3394661 17.5,24.375 L17.5,28.125 C17.5,29.1605339 16.6605339,30 15.625,30 C14.5894661,30 13.75,29.1605339 13.75,28.125 L13.75,24.375 C13.75,23.3394661 14.5894661,22.5 15.625,22.5 Z" id="Rectangle" fill="#BED84E" transform="translate(15.625000, 26.250000) rotate(90.000000) translate(-15.625000, -26.250000) "></path>
                <rect id="Rectangle" fill="#076473" x="24.0625" y="15.9375" width="3.75" height="3.75" rx="1.875"></rect>
                <rect id="Rectangle" fill="#076473" x="32.5" y="15.9375" width="3.75" height="3.75" rx="1.875"></rect>
                <rect id="Rectangle" fill="#076473" x="35.9375" y="15.9375" width="3.75" height="3.75" rx="1.875"></rect>
                <rect id="Rectangle" fill="#076473" x="35.9375" y="12.1875" width="3.75" height="3.75" rx="1.875"></rect>
                <rect id="Rectangle" fill="#076473" x="35.9375" y="20.3125" width="3.75" height="3.75" rx="1.875"></rect>
                <rect id="Rectangle" fill="#076473" x="11.875" y="15.9375" width="3.75" height="3.75" rx="1.875"></rect>
                <rect id="Rectangle" fill="#076473" x="0" y="20.3125" width="3.75" height="3.75" rx="1.875"></rect>
                <rect id="Rectangle" fill="#076473" x="0" y="12.1875" width="3.75" height="3.75" rx="1.875"></rect>
                <rect id="Rectangle" fill="#BED84E" x="7.8125" y="15.9375" width="3.75" height="3.75" rx="1.875"></rect>
                <rect id="Rectangle" fill="#54B087" x="7.8125" y="24.0625" width="3.75" height="3.75" rx="1.875"></rect>
                <rect id="Rectangle" fill="#BED84E" x="7.8125" y="32.1875" width="3.75" height="3.75" rx="1.875"></rect>
                <rect id="Rectangle" fill="#076473" x="20" y="36.25" width="3.75" height="3.75" rx="1.875"></rect>
                <rect id="Rectangle" fill="#54B087" x="20" y="8.125" width="3.75" height="7.5" rx="1.875"></rect>
                <rect id="Rectangle" fill="#076473" x="15.9375" y="12.1875" width="3.75" height="3.75" rx="1.875"></rect>
                <rect id="Rectangle" fill="#54B087" x="20" y="0" width="3.75" height="3.75" rx="1.875"></rect>
                <rect id="Rectangle" fill="#BED84E" x="15.9375" y="8.125" width="3.75" height="3.75" rx="1.875"></rect>
                <rect id="Rectangle" fill="#BED84E" x="24.0625" y="20" width="3.75" height="7.5" rx="1.875"></rect>
                <rect id="Rectangle" fill="#BED84E" x="20" y="32.1875" width="3.75" height="3.75" rx="1.875"></rect>
                <rect id="Rectangle" fill="#BED84E" x="24.0625" y="12.1875" width="3.75" height="3.75" rx="1.875"></rect>
                <rect id="Rectangle" fill="#BED84E" x="27.8125" y="8.125" width="3.75" height="3.75" rx="1.875"></rect>
                <rect id="Rectangle" fill="#BED84E" x="27.8125" y="24.0625" width="3.75" height="3.75" rx="1.875"></rect>
            </g>
        </g>
    </g>
</svg>