<svg width="24" height="24" viewBox="0 0 24 24" fill="none" xmlns="http://www.w3.org/2000/svg">
<path fill-rule="evenodd" clip-rule="evenodd" d="M23.9589 11C23.478 5.1702 18.8298 0.522022 13 0.0410738V0H12H11V0.0410738C4.84047 0.549225 0 5.70934 0 12C0 18.2907 4.84047 23.4508 11 23.9589V24H12H13V23.9589C18.8298 23.478 23.478 18.8298 23.9589 13H24V12V11H23.9589ZM21.9506 13H15.4853L15.0711 13.4142L13.6569 14.8284L13 15.4853V21.9506C17.7244 21.4816 21.4816 17.7244 21.9506 13ZM21.9506 11H15.4853L15.0711 10.5858L13.6569 9.17157L13 8.51472V2.04938C17.7244 2.51844 21.4816 6.27558 21.9506 11ZM2 12C2 6.81465 5.94668 2.5511 11 2.04938V9L10.8284 9.17157L9.41421 10.5858L8 12L9.41421 13.4142L10.8284 14.8284L11 15V21.9506C5.94668 21.4489 2 17.1853 2 12ZM12.2426 10.5858L10.8284 12L12.2426 13.4142L13.6569 12L12.2426 10.5858Z" fill="white"/>
</svg>
